<?xml version="1.0" standalone="no"?>
<!DOCTYPE svg PUBLIC "-//W3C//DTD SVG 20010904//EN"
 "http://www.w3.org/TR/2001/REC-SVG-20010904/DTD/svg10.dtd">
<svg version="1.0" xmlns="http://www.w3.org/2000/svg"
 width="310.000000pt" height="310.000000pt" viewBox="0 0 310.000000 310.000000"
 preserveAspectRatio="xMidYMid meet">
<metadata>
Created by potrace 1.11, written by Peter Selinger 2001-2013
</metadata>
<g transform="translate(0.000000,310.000000) scale(0.100000,-0.100000)"
fill="#000000" stroke="none">
<path d="M330 2450 c0 -5 68 -119 151 -252 83 -134 182 -292 219 -353 37 -60
132 -213 211 -340 78 -126 181 -293 229 -370 47 -77 155 -251 240 -388 84
-136 156 -247 160 -247 4 0 76 111 160 248 85 136 193 310 240 387 48 77 151
244 229 370 79 127 174 280 211 340 37 61 136 219 219 353 83 133 151 247 151
252 0 5 -492 9 -1210 9 -732 0 -1210 -4 -1210 -9z"/>
</g>
</svg>
