<?xml version="1.0" standalone="no"?>
<!DOCTYPE svg PUBLIC "-//W3C//DTD SVG 20010904//EN"
 "http://www.w3.org/TR/2001/REC-SVG-20010904/DTD/svg10.dtd">
<svg version="1.0" xmlns="http://www.w3.org/2000/svg"
 width="400.000000pt" height="400.000000pt" viewBox="0 0 400.000000 400.000000"
 preserveAspectRatio="xMidYMid meet">
<metadata>
Created by potrace 1.11, written by Peter Selinger 2001-2013
</metadata>
<g transform="translate(0.000000,400.000000) scale(0.100000,-0.100000)"
fill="#000000" stroke="none">
<path d="M0 2000 l0 -2000 2000 0 2000 0 0 2000 0 2000 -2000 0 -2000 0 0
-2000z m1760 910 c0 -10 -5 -42 -12 -70 -10 -46 -17 -54 -52 -72 -60 -31 -176
-153 -214 -225 -50 -94 -76 -199 -74 -294 0 -26 -5 -54 -11 -63 -7 -9 -61 -51
-122 -95 l-110 -79 -29 47 c-16 25 -108 177 -204 336 -96 160 -185 306 -198
326 -39 57 -35 59 79 59 131 0 109 16 -25 18 -70 1 -105 6 -110 14 -4 7 -22
37 -39 66 l-31 53 576 -1 c555 -1 576 -2 576 -20z m1607 14 l32 -6 -20 -39
-19 -39 -125 0 c-163 0 -176 -18 -15 -22 l120 -3 -199 -330 c-110 -181 -219
-362 -243 -401 l-42 -72 -26 17 c-25 16 -127 91 -187 137 -31 23 -32 27 -32
93 2 149 -67 317 -171 421 -36 36 -86 76 -112 90 -45 23 -48 28 -61 85 -8 33
-12 63 -10 67 5 9 1067 11 1110 2z m-1638 -1228 c38 -25 80 -82 211 -294 60
-97 65 -102 80 -85 24 26 213 333 208 338 -2 2 -46 -63 -98 -146 -128 -202
-117 -188 -136 -164 -36 46 -196 306 -191 311 3 3 22 1 43 -5 35 -10 46 -22
101 -108 l61 -97 61 95 c56 87 65 97 104 108 23 7 68 24 100 38 31 14 59 24
61 22 5 -6 97 -163 123 -211 l22 -40 -61 -107 c-34 -58 -122 -209 -196 -336
-74 -126 -153 -260 -174 -297 -22 -38 -43 -68 -46 -68 -4 0 -21 24 -38 53 -17
28 -95 158 -174 287 -190 312 -255 420 -269 448 -11 20 -3 35 73 152 47 72 88
130 91 130 3 0 23 -11 44 -24z m371 -70 c0 -13 -83 -146 -91 -146 -7 0 -99
139 -99 149 0 3 43 6 95 6 52 0 95 -4 95 -9z"/>
<path d="M1335 2750 l-100 -6 130 -1 c80 -1 122 2 110 7 -11 5 -24 8 -30 7 -5
0 -55 -4 -110 -7z"/>
<path d="M1200 2722 c0 -4 14 -29 30 -55 33 -53 36 -63 18 -70 -7 -3 -3 -6 8
-6 15 -1 37 -24 74 -81 29 -44 55 -79 57 -76 2 2 -16 37 -42 77 l-45 74 97 5
c112 6 99 22 -14 20 -38 -1 -76 -1 -85 -1 -9 1 -33 28 -54 61 -36 59 -44 68
-44 52z"/>
<path d="M1203 2567 c10 -28 179 -288 184 -283 3 2 -35 67 -82 143 -87 138
-114 175 -102 140z"/>
<path d="M2545 2750 c-4 -6 40 -10 125 -10 149 0 144 5 88 -80 l-33 -50 -92 0
c-117 0 -124 -18 -9 -22 l84 -3 -39 -65 c-56 -94 -48 -99 12 -7 46 72 52 77
84 77 19 0 35 -2 35 -5 0 -3 -36 -63 -80 -134 -90 -145 -118 -206 -42 -91 96
146 151 238 145 244 -4 3 -21 6 -40 6 -18 0 -33 3 -33 6 0 4 18 35 39 69 22
35 37 66 34 69 -11 10 -271 7 -278 -4z"/>
</g>
</svg>
